<?xml version="1.0" standalone="no"?>
<!DOCTYPE svg PUBLIC "-//W3C//DTD SVG 20010904//EN"
 "http://www.w3.org/TR/2001/REC-SVG-20010904/DTD/svg10.dtd">
<svg version="1.0" xmlns="http://www.w3.org/2000/svg"
 width="1440.000000pt" height="1440.000000pt" viewBox="0 0 1440.000000 1440.000000"
 preserveAspectRatio="xMidYMid meet">
<metadata>
Created by potrace 1.15, written by Peter Selinger 2001-2017
</metadata>
<g transform="translate(0.000000,1440.000000) scale(0.100000,-0.100000)"
fill="#000000" stroke="none">
<path d="M7838 11389 c-13 -7 -18 -23 -18 -58 0 -40 -4 -50 -19 -54 -18 -4
-19 -11 -14 -61 4 -39 2 -56 -6 -56 -7 0 -11 -24 -11 -70 0 -53 -3 -70 -14
-70 -7 0 -16 -14 -20 -32 -3 -17 -14 -40 -23 -50 -10 -12 -18 -42 -21 -78 -4
-50 -7 -60 -23 -60 -14 0 -20 -10 -25 -40 -4 -22 -12 -40 -19 -40 -16 0 -25
-32 -25 -87 0 -30 -4 -43 -14 -43 -7 0 -16 -9 -19 -20 -3 -11 -12 -20 -20 -20
-8 0 -17 -8 -19 -18 -10 -36 -136 -37 -145 -1 -3 11 -11 19 -18 19 -7 0 -15
17 -19 39 -4 27 -12 40 -26 44 -12 3 -20 14 -20 26 0 15 -6 21 -21 21 -12 0
-23 8 -26 20 -3 11 -12 20 -20 20 -8 0 -17 9 -20 19 -3 11 -13 21 -24 24 -10
3 -19 12 -19 21 0 11 -13 18 -40 22 -34 6 -40 10 -40 30 0 21 -5 24 -40 24
-33 0 -40 3 -40 20 0 17 -7 20 -50 20 -38 0 -50 4 -50 15 0 10 -14 17 -40 21
-22 4 -40 12 -40 19 0 14 -85 25 -191 25 -55 0 -70 3 -78 18 -13 24 -154 24
-174 0 -9 -11 -36 -17 -100 -21 -51 -3 -96 -11 -110 -19 -12 -8 -39 -18 -59
-22 -23 -4 -38 -13 -38 -21 0 -11 -13 -15 -50 -15 -43 0 -50 -3 -50 -20 0 -17
-7 -20 -40 -20 -36 0 -40 -3 -40 -24 0 -20 -6 -25 -40 -31 -25 -4 -40 -12 -40
-21 0 -8 -10 -14 -23 -14 -27 0 -67 -38 -67 -63 0 -11 -11 -17 -37 -19 -31 -2
-39 -7 -41 -26 -2 -13 -11 -26 -20 -29 -33 -13 -62 -47 -68 -80 -5 -26 -11
-33 -29 -33 -27 0 -65 -47 -65 -79 0 -12 -6 -21 -14 -21 -7 0 -16 -9 -19 -20
-3 -11 -12 -20 -20 -20 -17 0 -27 -29 -27 -82 0 -33 -3 -38 -24 -38 -13 0 -26
-7 -30 -17 -3 -10 -13 -29 -21 -43 -8 -14 -15 -46 -15 -72 0 -34 -4 -48 -14
-48 -8 0 -17 -12 -21 -27 -3 -16 -13 -36 -22 -45 -8 -9 -17 -44 -20 -77 -5
-49 -9 -61 -23 -61 -14 0 -19 -11 -22 -50 -3 -30 -13 -59 -24 -71 -15 -17 -20
-40 -22 -120 -3 -72 -7 -99 -17 -99 -13 0 -25 -42 -25 -86 0 -12 -7 -30 -16
-38 -11 -12 -17 -47 -21 -141 -5 -108 -8 -125 -23 -125 -12 0 -20 -14 -28 -52
-6 -29 -18 -78 -26 -108 -9 -30 -16 -82 -16 -116 0 -52 -3 -62 -19 -67 -29 -7
-52 -61 -58 -138 -5 -58 -9 -69 -24 -69 -28 0 -69 -72 -69 -120 0 -33 -4 -40
-19 -40 -10 0 -22 -8 -25 -17 -4 -10 -13 -31 -22 -46 -11 -20 -14 -40 -9 -68
6 -36 10 -39 46 -45 21 -4 39 -12 39 -19 0 -13 30 -25 64 -25 11 0 27 -7 37
-15 10 -10 45 -18 88 -22 47 -4 71 -10 71 -18 0 -15 32 -25 83 -25 29 0 37 -4
37 -19 0 -22 35 -31 116 -31 39 0 54 -4 54 -14 0 -15 42 -26 96 -26 23 0 34
-5 34 -14 0 -11 22 -16 85 -21 52 -5 89 -13 96 -21 6 -8 30 -14 54 -14 23 0
76 -3 118 -6 63 -6 77 -10 77 -24 0 -14 15 -18 92 -24 50 -3 126 -6 170 -6 56
0 78 -4 78 -12 0 -17 467 -15 483 1 7 7 58 11 126 11 64 0 140 3 169 6 51 7
52 8 52 39 0 36 -15 44 -80 45 -24 0 -42 8 -59 25 -13 14 -29 25 -36 25 -8 0
-20 6 -27 13 -7 7 -21 16 -30 20 -10 3 -18 13 -18 22 0 10 -14 17 -40 21 -39
6 -40 7 -40 49 0 33 -4 44 -19 48 -11 3 -22 17 -26 36 -4 17 -13 31 -21 31
-11 0 -14 20 -14 95 0 57 -4 95 -10 95 -5 0 -10 7 -10 15 0 8 5 15 10 15 6 0
10 43 10 110 0 87 3 110 14 110 15 0 26 21 26 50 0 9 7 23 15 30 8 7 18 30 21
51 5 29 11 39 25 39 12 0 19 7 19 20 0 15 7 20 25 20 20 0 25 5 25 25 0 16 6
25 15 25 8 0 15 7 15 15 0 9 9 15 25 15 18 0 25 5 25 20 0 17 7 20 45 20 41 0
45 2 45 24 0 23 4 24 80 31 58 5 80 11 80 21 0 21 257 20 280 -1 9 -8 47 -17
88 -21 61 -6 72 -10 72 -25 0 -14 10 -20 40 -25 30 -5 40 -11 40 -25 0 -14 7
-19 25 -19 15 0 25 -6 25 -14 0 -7 9 -16 20 -19 11 -3 20 -12 20 -20 0 -8 9
-17 20 -20 12 -3 20 -14 20 -26 0 -14 6 -21 19 -21 15 0 19 -10 23 -56 3 -31
10 -59 17 -63 21 -14 31 -75 31 -196 0 -124 -11 -197 -29 -203 -6 -2 -11 -18
-11 -35 0 -24 3 -28 12 -19 7 7 25 12 40 12 21 0 28 5 28 19 0 14 10 21 35 25
26 5 35 12 35 27 0 11 8 23 18 26 9 4 26 15 36 25 11 10 23 18 28 18 4 0 8 7
8 15 0 9 8 19 17 22 32 12 62 50 68 87 5 25 12 36 25 36 11 0 20 10 24 25 4
14 13 25 20 25 16 0 26 30 26 83 0 28 4 37 18 37 32 1 62 86 62 178 0 62 3 82
13 82 15 0 37 41 37 69 0 10 7 24 15 31 12 10 15 40 15 147 0 117 -3 138 -19
159 -10 13 -22 49 -26 79 -4 35 -11 55 -20 55 -8 0 -14 19 -17 60 -3 36 -11
66 -21 78 -9 10 -20 33 -23 50 -4 18 -12 32 -19 32 -7 0 -15 16 -18 35 -6 35
-49 84 -74 85 -7 0 -13 12 -13 28 0 31 -36 72 -63 72 -10 0 -17 8 -17 19 0 23
-49 61 -78 61 -14 0 -22 8 -24 23 -2 17 -11 23 -35 25 -25 2 -33 8 -33 23 0
16 -7 19 -45 19 -38 0 -45 3 -45 20 0 17 -7 20 -45 20 -32 0 -45 4 -45 14 0
15 -42 26 -96 26 l-34 0 0 53 c0 76 11 127 26 127 7 0 16 16 20 35 4 24 12 35
24 35 25 0 70 49 70 76 0 13 5 24 10 24 21 0 61 51 67 85 5 30 10 34 44 40 36
6 40 10 45 46 4 23 12 39 20 39 8 0 14 7 14 15 0 9 9 15 25 15 21 0 25 5 25
30 0 20 5 30 15 30 8 0 15 7 15 15 0 10 10 15 30 15 23 0 30 4 30 20 0 13 7
20 20 20 13 0 20 7 20 20 0 13 7 20 20 20 17 0 20 7 20 50 0 47 -2 50 -25 50
-16 0 -25 6 -25 15 0 8 -7 15 -16 15 -9 0 -18 9 -21 20 -3 11 -14 20 -24 20
-10 0 -37 22 -61 50 -28 32 -51 50 -65 50 -13 0 -23 6 -23 14 0 9 -15 17 -39
21 -22 4 -41 13 -43 20 -2 10 -8 11 -20 4z"/>
<path d="M9466 8671 c-3 -5 -48 -12 -98 -16 -51 -4 -100 -13 -108 -19 -8 -7
-39 -18 -68 -24 -51 -11 -61 -17 -103 -54 -10 -10 -26 -18 -34 -18 -8 0 -15
-4 -15 -9 0 -5 -9 -11 -20 -14 -11 -3 -20 -12 -20 -20 0 -8 -9 -17 -21 -20
-11 -3 -25 -19 -32 -36 -6 -17 -17 -31 -24 -31 -7 0 -13 -4 -13 -8 0 -5 -9
-19 -20 -32 -11 -13 -20 -29 -20 -36 0 -7 -8 -19 -18 -26 -10 -7 -22 -25 -25
-40 -4 -15 -15 -34 -24 -43 -9 -9 -20 -40 -24 -67 -5 -28 -15 -58 -24 -68 -9
-10 -15 -35 -15 -62 0 -32 -6 -50 -20 -63 -12 -11 -20 -31 -20 -52 0 -22 -5
-33 -15 -33 -10 0 -16 -17 -21 -59 -5 -44 -11 -60 -24 -64 -12 -3 -19 -19 -24
-55 -3 -27 -15 -61 -26 -75 -11 -14 -20 -34 -20 -45 0 -29 -41 -71 -77 -78
-18 -4 -38 -13 -44 -20 -10 -12 -341 -14 -2129 -14 -2094 0 -2180 -1 -2180
-31 0 -5 -9 -9 -20 -9 -13 0 -20 -7 -20 -18 0 -11 -9 -29 -20 -42 -18 -21 -20
-37 -20 -169 0 -80 7 -198 16 -261 9 -63 20 -194 25 -290 11 -236 25 -381 36
-389 6 -3 12 -52 15 -108 4 -76 9 -105 21 -118 11 -10 17 -33 17 -59 0 -29 7
-51 20 -66 11 -13 20 -33 20 -45 0 -12 9 -30 20 -40 11 -10 20 -28 20 -40 0
-21 17 -48 55 -89 11 -11 27 -33 35 -47 14 -25 69 -102 88 -124 5 -5 20 -17
32 -25 13 -8 47 -39 75 -67 29 -29 60 -53 69 -53 9 0 19 -7 22 -15 4 -8 12
-15 18 -15 7 0 27 -11 46 -25 19 -14 42 -25 52 -25 10 0 21 -7 24 -15 4 -8 17
-15 30 -15 13 0 24 -3 24 -7 0 -11 68 -41 110 -49 19 -3 40 -10 45 -14 14 -12
156 -30 230 -30 35 0 67 -4 70 -10 4 -7 410 -10 1185 -10 1058 0 1180 -2 1194
-16 31 -31 12 -122 -33 -162 -73 -65 -91 -83 -91 -91 0 -5 -20 -12 -45 -15
-29 -5 -45 -12 -45 -21 0 -13 -211 -15 -1501 -17 -1416 -3 -1501 -4 -1513 -20
-9 -12 -27 -18 -51 -18 -28 0 -38 -5 -42 -20 -3 -13 -14 -20 -29 -20 -19 0
-24 -5 -24 -25 0 -16 -6 -25 -15 -25 -9 0 -20 -11 -25 -25 -5 -14 -14 -25 -19
-25 -6 0 -13 -16 -17 -35 -3 -19 -12 -39 -20 -46 -19 -16 -19 -135 -1 -146 8
-4 17 -25 20 -47 3 -21 12 -43 20 -50 8 -6 20 -26 27 -44 8 -20 19 -32 31 -32
12 0 19 -7 19 -19 0 -19 18 -31 49 -31 10 0 26 -9 36 -20 16 -17 31 -20 113
-20 l95 0 -7 -72 c-5 -51 -12 -78 -26 -93 -11 -12 -20 -29 -20 -38 0 -10 -8
-30 -17 -44 -16 -24 -18 -53 -18 -221 0 -173 2 -195 18 -206 10 -8 17 -26 17
-44 0 -40 9 -62 26 -62 9 0 14 -12 14 -36 0 -27 5 -37 20 -41 13 -3 20 -14 20
-29 0 -19 5 -24 25 -24 18 0 25 -5 25 -20 0 -13 7 -20 20 -20 13 0 20 -7 20
-20 0 -13 7 -20 20 -20 13 0 20 -7 20 -20 0 -13 7 -20 20 -20 11 0 20 -7 20
-15 0 -8 5 -15 11 -15 7 0 22 -11 34 -24 12 -12 37 -26 57 -30 20 -4 41 -13
47 -20 7 -8 37 -17 69 -21 31 -4 60 -12 64 -19 11 -17 286 -15 297 2 4 7 33
16 64 19 37 4 62 12 73 24 10 11 26 19 37 19 10 0 32 11 49 25 16 14 36 25 44
25 8 0 14 7 14 15 0 8 7 15 16 15 9 0 18 9 21 20 3 11 12 20 20 20 8 0 17 9
20 19 3 11 16 22 29 25 13 4 24 13 24 22 0 8 7 17 15 20 8 4 15 12 15 19 0 8
11 27 25 43 14 17 25 38 25 48 0 9 7 26 16 36 10 10 19 41 22 69 3 30 10 53
18 56 9 3 14 21 14 49 0 25 5 44 11 44 20 0 -4 237 -26 255 -7 5 -15 32 -18
58 -2 26 -12 56 -21 66 -26 28 -22 112 7 139 23 22 30 22 306 22 167 0 290 -4
301 -10 10 -6 21 -26 25 -49 8 -48 -13 -161 -31 -168 -8 -3 -14 -16 -14 -29 0
-13 -4 -24 -10 -24 -6 0 -10 -26 -10 -59 0 -33 -4 -63 -10 -66 -5 -3 -10 -37
-10 -75 0 -38 5 -72 10 -75 6 -3 10 -23 10 -43 0 -40 19 -101 37 -123 6 -8 14
-26 18 -41 4 -15 13 -32 21 -39 8 -6 14 -20 14 -31 0 -11 9 -22 20 -25 12 -3
20 -14 20 -27 0 -13 29 -48 83 -98 45 -43 85 -78 90 -78 4 0 7 -4 7 -10 0 -5
7 -10 15 -10 9 0 18 -7 21 -15 4 -9 19 -15 35 -15 16 0 38 -9 49 -20 11 -11
30 -20 42 -20 12 0 48 -10 81 -21 52 -18 76 -21 187 -17 103 3 130 7 144 21
11 11 33 17 60 17 28 0 52 7 69 20 14 11 32 20 41 20 9 0 16 6 16 14 0 7 13
16 29 19 16 4 38 15 48 25 10 10 26 22 36 25 9 4 17 13 17 22 0 8 7 15 15 15
9 0 18 8 22 17 3 10 12 25 19 33 52 59 74 90 74 103 0 8 9 17 20 20 15 4 20
14 20 41 0 24 5 36 14 36 17 0 26 22 26 65 0 19 4 36 9 39 26 16 32 277 7 305
-10 11 -16 36 -16 68 0 60 -7 83 -25 83 -8 0 -16 17 -20 39 -4 22 -13 42 -21
45 -10 4 -14 22 -14 63 0 54 2 60 28 71 50 23 72 37 72 44 0 5 11 8 25 8 14 0
28 6 31 14 3 8 16 17 30 20 13 4 24 13 24 21 0 8 7 15 15 15 8 0 29 14 47 30
17 17 35 30 39 30 5 0 9 9 9 20 0 11 5 20 10 20 6 0 10 7 10 15 0 8 7 15 15
15 8 0 15 9 15 20 0 10 8 24 19 29 10 6 21 24 25 41 3 17 13 38 21 46 8 9 15
29 15 45 0 18 7 33 20 41 15 10 20 24 20 55 0 24 5 43 10 43 6 0 10 6 10 14 0
7 7 19 15 26 9 8 15 29 15 56 0 29 6 49 19 61 11 11 20 38 23 66 3 26 13 56
22 66 9 10 16 29 16 44 0 14 7 32 15 40 7 8 17 28 20 43 10 45 27 84 35 84 5
0 12 24 15 54 5 34 14 61 26 72 13 12 19 31 19 59 0 27 7 51 20 68 13 17 20
40 20 71 0 35 5 49 20 58 15 10 20 24 20 55 0 24 3 43 8 43 9 0 37 64 47 109
4 19 14 41 21 49 8 7 14 26 14 41 0 16 6 34 14 40 8 7 18 37 21 66 4 30 14 60
21 66 8 6 17 29 20 50 4 22 9 39 13 39 9 0 27 46 41 105 6 28 17 57 24 65 8 8
16 37 20 64 3 27 10 54 15 60 4 6 14 36 21 66 7 30 18 60 24 65 6 6 18 30 25
55 7 25 19 56 26 70 7 14 16 45 20 70 4 25 14 52 21 61 8 9 17 40 21 69 3 29
12 54 19 57 8 3 14 16 14 29 0 13 5 24 10 24 6 0 10 13 10 30 0 16 7 33 16 38
9 5 17 29 21 66 4 34 11 60 19 63 7 3 16 21 20 41 4 21 13 44 21 53 7 9 16 40
20 69 3 29 12 54 19 57 8 3 14 14 14 24 0 10 5 19 10 19 6 0 10 16 10 36 0 22
6 41 16 49 9 6 18 32 21 61 3 27 14 61 24 76 11 14 19 35 19 45 0 11 9 28 20
38 11 10 20 26 20 37 0 11 7 18 20 18 12 0 35 14 53 31 18 16 40 38 50 47 15
14 55 17 271 22 165 3 258 9 267 16 8 7 28 15 46 18 17 4 37 14 44 22 6 8 16
14 21 14 12 0 38 26 38 38 0 5 9 12 20 15 12 3 20 14 20 25 0 11 7 22 15 26 8
3 15 15 15 26 0 11 3 20 8 20 19 0 36 69 34 138 -1 56 -6 79 -22 99 -11 14
-20 33 -20 43 0 21 -113 130 -135 130 -8 0 -26 6 -38 14 -12 8 -43 18 -70 21
-26 4 -50 11 -53 16 -7 12 -521 12 -528 0z m-4376 -1546 c0 -8 7 -15 16 -15 9
0 18 -9 21 -20 3 -11 14 -20 24 -20 18 0 19 -21 19 -705 0 -684 -1 -705 -19
-705 -10 0 -21 -9 -24 -20 -3 -11 -12 -20 -21 -20 -9 0 -16 -7 -16 -15 0 -12
-14 -15 -65 -15 -50 0 -65 3 -65 15 0 8 -14 17 -34 20 -28 6 -35 12 -40 37 -3
17 -6 333 -6 703 0 370 3 686 6 703 5 25 12 31 40 37 20 3 34 12 34 20 0 12
15 15 65 15 51 0 65 -3 65 -15z m810 0 c0 -10 14 -17 40 -21 37 -6 41 -9 46
-45 4 -23 12 -39 20 -39 12 0 14 -107 14 -660 0 -556 -2 -660 -14 -660 -8 0
-17 -15 -20 -35 -5 -26 -12 -35 -27 -35 -12 0 -23 -8 -26 -20 -5 -18 -14 -20
-78 -20 -64 0 -73 2 -78 20 -3 11 -12 20 -20 20 -8 0 -17 9 -20 20 -3 11 -12
20 -21 20 -14 0 -16 66 -16 695 0 629 2 695 16 695 9 0 18 9 21 19 3 11 13 21
24 24 10 3 19 12 19 21 0 13 12 16 60 16 46 0 60 -3 60 -15z m850 0 c0 -8 7
-15 16 -15 9 0 18 -9 21 -20 3 -11 14 -20 24 -20 13 0 19 -7 19 -22 0 -39 12
-68 26 -68 8 0 14 -9 14 -20 0 -11 -7 -20 -15 -20 -11 0 -15 -12 -15 -45 0
-33 4 -45 15 -45 13 0 15 -63 15 -510 0 -447 -2 -510 -15 -510 -11 0 -15 -11
-15 -39 0 -21 -3 -65 -6 -98 l-7 -61 -38 -6 c-25 -4 -39 -12 -39 -21 0 -12
-14 -15 -65 -15 -51 0 -65 3 -65 15 0 8 -7 15 -16 15 -9 0 -18 9 -21 20 -3 11
-11 20 -18 20 -7 0 -15 17 -19 38 -8 49 -8 1266 0 1326 4 27 12 46 19 46 7 0
15 9 18 20 3 11 12 20 21 20 9 0 16 7 16 15 0 12 14 15 65 15 51 0 65 -3 65
-15z m843 -5 c3 -11 14 -20 25 -20 11 0 22 -9 25 -20 3 -11 12 -20 21 -20 14
0 16 -66 16 -694 0 -685 0 -694 -20 -699 -12 -3 -20 -14 -20 -26 0 -14 -6 -21
-20 -21 -11 0 -20 -7 -20 -15 0 -12 -16 -15 -80 -15 -73 0 -80 2 -80 20 0 13
-7 20 -19 20 -14 0 -21 10 -25 35 -4 21 -13 35 -21 35 -13 0 -15 89 -15 660 0
562 2 660 14 660 9 0 17 15 21 39 6 37 9 40 46 46 24 4 39 12 39 21 0 10 14
14 54 14 45 0 54 -3 59 -20z m-2280 -3216 c20 -4 37 -12 37 -19 0 -7 15 -16
34 -19 29 -6 35 -12 40 -41 4 -21 13 -35 21 -35 12 0 15 -17 15 -85 0 -65 -3
-85 -14 -85 -8 0 -16 -16 -20 -40 -5 -35 -10 -40 -41 -46 -19 -3 -35 -12 -35
-19 0 -16 -54 -25 -147 -25 -65 0 -73 2 -73 19 0 14 -10 21 -35 25 -31 6 -36
11 -41 46 -4 24 -12 40 -20 40 -11 0 -14 20 -14 85 0 66 3 85 14 85 8 0 17 15
20 35 6 29 12 35 41 41 19 3 35 12 35 19 0 21 106 31 183 19z m1956 0 c17 -4
31 -13 31 -20 0 -8 9 -14 21 -14 12 0 23 -8 26 -20 3 -11 11 -20 19 -20 8 0
15 -18 20 -45 4 -28 11 -45 20 -45 10 0 14 -13 14 -40 0 -28 -4 -40 -14 -40
-10 0 -17 -16 -22 -45 -4 -28 -11 -45 -20 -45 -8 0 -14 -9 -14 -20 0 -15 -7
-20 -25 -20 -15 0 -25 -6 -25 -14 0 -17 -44 -26 -129 -26 -83 0 -108 7 -114
31 -3 10 -12 19 -20 19 -8 0 -17 9 -20 20 -3 12 -14 20 -25 20 -17 0 -21 8
-24 48 -1 26 -2 80 0 120 3 64 6 72 24 72 11 0 22 8 25 20 3 11 12 20 20 20 8
0 17 9 20 19 4 14 16 21 42 24 65 7 138 7 170 1z"/>
</g>
</svg>
